<?xml version="1.0" encoding="UTF-8" standalone="no"?>
<!DOCTYPE svg PUBLIC "-//W3C//DTD SVG 20010904//EN"
              "http://www.w3.org/TR/2001/REC-SVG-20010904/DTD/svg10.dtd">

<svg xmlns="http://www.w3.org/2000/svg"
     width="2.83333in" height="1.04667in"
     viewBox="0 0 850 314">
  <path id="Selection"
        fill="black"
        d="M 763.00,137.00
           C 763.00,137.00 774.47,81.11 774.47,81.11
             776.75,75.31 787.98,75.40 788.86,81.11
             789.39,84.53 787.95,89.59 787.21,93.00
             787.21,93.00 781.66,118.00 781.66,118.00
             781.66,118.00 779.55,132.00 779.55,132.00
             779.55,132.00 775.21,151.00 775.21,151.00
             775.21,151.00 771.20,174.00 771.20,174.00
             771.20,174.00 765.60,199.00 765.60,199.00
             765.60,199.00 761.58,222.00 761.58,222.00
             761.05,224.40 760.24,228.72 758.44,230.40
             756.66,232.07 753.33,232.13 751.02,231.94
             743.29,231.30 747.24,225.34 748.00,216.00
             736.21,227.68 726.84,233.20 710.00,233.00
             693.72,232.80 684.30,221.42 682.15,206.00
             682.15,206.00 682.15,192.00 682.15,192.00
             682.19,176.02 691.87,149.44 703.09,138.09
             716.34,124.69 738.30,120.15 755.00,130.07
             758.05,131.89 760.50,134.52 763.00,137.00 Z
           M 19.00,84.00
           C 19.00,84.00 56.00,84.00 56.00,84.00
             56.00,84.00 63.37,84.99 63.37,84.99
             63.37,84.99 71.69,101.00 71.69,101.00
             71.69,101.00 96.00,155.00 96.00,155.00
             96.00,155.00 119.86,101.00 119.86,101.00
             119.86,101.00 128.39,85.02 128.39,85.02
             128.39,85.02 136.00,84.00 136.00,84.00
             136.00,84.00 172.00,84.00 172.00,84.00
             172.00,84.00 172.00,229.00 172.00,229.00
             172.00,229.00 134.00,229.00 134.00,229.00
             134.00,229.00 134.00,167.00 134.00,167.00
             134.00,167.00 133.00,136.00 133.00,136.00
             133.00,136.00 109.00,195.00 109.00,195.00
             109.00,195.00 89.00,195.00 89.00,195.00
             89.00,195.00 81.64,194.01 81.64,194.01
             81.64,194.01 74.15,179.00 74.15,179.00
             74.15,179.00 55.00,135.00 55.00,135.00
             55.00,135.00 55.00,229.00 55.00,229.00
             55.00,229.00 19.00,229.00 19.00,229.00
             19.00,229.00 19.00,84.00 19.00,84.00 Z
           M 403.00,115.00
           C 403.00,115.00 381.82,163.00 381.82,163.00
             381.82,163.00 366.31,196.00 366.31,196.00
             366.31,196.00 362.69,205.00 362.69,205.00
             362.69,205.00 356.87,217.00 356.87,217.00
             353.10,225.79 353.30,231.85 342.00,232.00
             339.63,232.03 335.28,232.25 333.30,230.98
             330.75,229.33 330.35,225.75 330.07,223.00
             330.07,223.00 328.07,205.00 328.07,205.00
             328.07,205.00 326.00,183.00 326.00,183.00
             326.00,183.00 319.17,115.00 319.17,115.00
             319.17,115.00 317.33,91.06 317.33,91.06
             318.50,86.32 326.42,86.10 329.85,87.60
             332.94,88.94 332.98,92.10 333.42,95.00
             333.42,95.00 335.72,117.00 335.72,117.00
             335.72,117.00 340.83,181.00 340.83,181.00
             340.83,181.00 344.00,210.00 344.00,210.00
             344.00,210.00 358.11,180.00 358.11,180.00
             358.11,180.00 384.74,122.00 384.74,122.00
             384.74,122.00 394.13,102.00 394.13,102.00
             395.60,98.57 397.59,92.09 399.96,89.43
             402.66,86.41 413.27,85.52 415.47,89.43
             417.17,92.47 416.96,101.34 417.00,105.00
             417.00,105.00 423.83,176.00 423.83,176.00
             423.83,176.00 425.00,190.00 425.00,190.00
             425.08,197.43 424.93,204.78 427.00,212.00
             429.22,204.15 433.73,196.38 437.22,189.00
             437.22,189.00 446.10,171.00 446.10,171.00
             446.10,171.00 450.86,160.00 450.86,160.00
             450.86,160.00 467.12,126.00 467.12,126.00
             467.12,126.00 480.69,98.00 480.69,98.00
             483.76,91.33 483.69,87.26 492.00,87.02
             494.59,86.94 499.28,86.58 500.64,89.31
             501.85,91.74 500.09,94.88 498.97,97.00
             498.97,97.00 489.86,115.00 489.86,115.00
             489.86,115.00 483.73,128.00 483.73,128.00
             483.73,128.00 470.37,154.00 470.37,154.00
             470.37,154.00 446.31,203.00 446.31,203.00
             446.31,203.00 436.78,222.00 436.78,222.00
             435.45,224.56 433.99,228.53 431.73,230.26
             429.27,232.15 425.94,232.00 423.00,232.00
             420.73,232.00 417.25,232.12 415.31,230.83
             412.45,228.92 413.10,224.98 412.96,222.00
             412.96,222.00 410.92,200.00 410.92,200.00
             410.92,200.00 405.17,142.00 405.17,142.00
             405.17,142.00 403.00,115.00 403.00,115.00 Z
           M 303.00,194.00
           C 303.00,194.00 303.00,216.00 303.00,216.00
             302.98,224.61 302.92,224.98 290.00,228.98
             278.00,232.69 270.19,232.02 258.00,232.00
             237.83,231.97 216.02,223.35 205.90,205.00
             200.39,195.01 198.87,183.24 199.00,172.00
             199.06,166.77 200.22,159.01 201.72,154.00
             209.25,128.90 232.90,116.04 258.00,116.00
             258.00,116.00 271.00,116.00 271.00,116.00
             278.88,116.10 286.61,118.06 294.00,120.69
             296.10,121.44 300.71,122.94 302.01,124.70
             303.26,126.38 303.00,129.94 303.00,132.00
             303.00,132.00 303.00,155.00 303.00,155.00
             292.07,154.96 294.11,152.56 285.00,147.78
             278.87,144.57 273.94,143.08 267.00,143.00
             260.07,142.92 254.83,143.22 249.00,147.56
             232.82,159.58 231.48,189.38 249.00,200.89
             257.76,206.65 273.61,206.16 283.00,202.12
             293.44,197.64 290.98,194.05 303.00,194.00 Z
           M 564.00,215.00
           C 563.96,218.78 564.03,222.67 561.35,225.70
             557.50,230.06 540.00,232.93 534.00,233.00
             522.75,233.13 510.24,233.36 501.01,225.73
             489.38,216.11 489.07,200.85 490.72,187.00
             490.72,187.00 491.67,177.00 491.67,177.00
             497.06,151.59 515.74,125.34 544.00,125.00
             553.59,124.89 562.73,124.83 571.00,130.65
             586.45,141.52 583.22,161.75 569.00,172.07
             560.83,178.00 540.21,181.95 530.00,182.00
             530.00,182.00 515.00,182.00 515.00,182.00
             505.38,182.07 506.12,184.78 505.74,195.00
             505.63,198.05 505.91,202.08 506.80,205.00
             514.97,231.84 548.67,215.34 564.00,215.00 Z
           M 659.00,215.00
           C 659.00,218.29 659.41,223.01 657.26,225.70
             655.40,228.04 650.83,229.11 648.00,229.98
             637.08,233.32 630.15,233.13 619.00,233.00
             604.03,232.82 590.90,225.09 586.92,210.00
             585.58,204.89 585.94,194.64 586.00,189.00
             586.08,182.15 587.82,175.46 590.00,169.00
             596.19,150.73 606.77,134.01 626.00,127.67
             645.01,121.41 678.04,124.23 676.96,151.00
             675.98,175.34 644.62,181.97 625.00,182.00
             620.51,182.01 605.58,180.70 603.17,184.31
             601.84,186.32 601.84,192.40 601.74,195.00
             601.01,215.37 613.83,221.50 632.00,220.00
             632.00,220.00 659.00,215.00 659.00,215.00 Z
           M 510.00,170.00
           C 510.00,170.00 535.00,168.91 535.00,168.91
             539.53,168.60 544.66,167.44 549.00,166.12
             552.84,164.94 557.58,163.34 560.47,160.47
             566.07,154.92 566.74,145.82 559.90,140.97
             549.09,133.30 530.58,139.26 522.18,148.09
             515.18,155.45 513.45,161.04 510.00,170.00 Z
           M 606.00,170.00
           C 606.00,170.00 631.00,168.91 631.00,168.91
             635.77,168.58 640.47,167.49 645.00,166.00
             648.54,164.84 652.81,163.63 655.79,161.20
             661.95,155.88 663.08,146.06 655.79,140.97
             644.64,132.98 625.47,139.39 617.32,149.00
             611.24,156.18 608.92,161.27 606.00,170.00 Z
           M 734.00,137.57
           C 707.28,139.14 697.75,175.89 698.00,198.00
             698.13,208.42 701.50,220.28 714.00,220.43
             717.97,220.47 721.40,219.37 725.00,217.84
             742.94,210.21 752.18,190.03 756.21,172.00
             757.22,167.44 759.75,158.34 758.69,154.00
             757.96,151.02 756.06,149.13 753.98,147.00
             747.94,140.80 742.63,138.20 734.00,137.57 Z
           M 790.00,194.00
           C 790.00,194.00 795.00,194.00 795.00,194.00
             795.00,194.00 790.17,219.00 790.17,219.00
             789.25,230.27 800.31,231.79 806.58,223.96
             810.33,219.29 813.47,200.45 814.00,194.00
             814.00,194.00 819.00,194.00 819.00,194.00
             818.34,202.02 814.78,223.10 809.47,228.66
             804.27,234.12 790.17,235.46 786.17,227.96
             784.44,224.70 785.00,219.52 785.61,216.00
             785.61,216.00 790.00,194.00 790.00,194.00 Z
           M 819.00,227.00
           C 823.53,227.47 828.73,229.92 832.98,228.26
             836.66,226.83 839.67,223.03 837.22,219.18
             834.50,214.91 826.38,213.55 825.24,206.00
             823.32,193.27 841.24,191.79 845.41,195.74
             846.57,196.85 846.55,197.65 847.00,199.00
             847.00,199.00 840.00,198.30 840.00,198.30
             833.10,197.70 828.77,202.34 831.64,206.90
             834.44,211.34 842.44,212.42 843.62,220.00
             845.14,229.80 835.91,233.18 828.00,232.99
             822.69,232.86 819.99,232.67 819.00,227.00 Z
           M 771.11,220.78
           C 780.16,219.48 780.39,229.23 774.89,231.22
             769.35,233.22 763.36,225.54 771.11,220.78 Z" />
</svg>
