<svg xmlns="http://www.w3.org/2000/svg"
     width="800" height="700">
    <path id="Leaf"
          fill="black" stroke="black" stroke-width="1"
          d="
            M 390,699
            L 410,699 408,586
                494,647 593,665 513,605 409,579
                629,575 799,470 604,484 408,574
                640,416 749,199 542,330 405,569
                478,259 403,1   324,258 395,569
                264,336 57,205  164,420 392,573
                193,484 1,481   175,576 390,580
                284,607 211,672 308,643 393,586
            Z"
    />
</svg>